HIERARCHY
ROOT Hips
{
	OFFSET -0.001795 -0.223333 0.028219
	CHANNELS 6 Xposition Yposition Zposition Zrotation Yrotation Xrotation 
	JOINT LeftUpLeg
	{
		OFFSET 0.069520 -0.091406 -0.006815
		CHANNELS 3 Zrotation Yrotation Xrotation
		JOINT LeftLeg
		{
			OFFSET 0.034277 -0.375199 -0.004496
			CHANNELS 3 Zrotation Yrotation Xrotation
			JOINT LeftFoot
			{
				OFFSET -0.013596 -0.397961 -0.043693
				CHANNELS 3 Zrotation Yrotation Xrotation
				JOINT LeftToe
				{
					OFFSET 0.026358 -0.055791 0.119288
					CHANNELS 3 Zrotation Yrotation Xrotation
					End Site
					{
						OFFSET 0.000000 0.000000 0.000000
					}
				}
			}
		}
	}
	JOINT RightUpLeg
	{
		OFFSET -0.067670 -0.090522 -0.004320
		CHANNELS 3 Zrotation Yrotation Xrotation
		JOINT RightLeg
		{
			OFFSET -0.038290 -0.382569 -0.008850
			CHANNELS 3 Zrotation Yrotation Xrotation
			JOINT RightFoot
			{
				OFFSET 0.015774 -0.398415 -0.042312
				CHANNELS 3 Zrotation Yrotation Xrotation
				JOINT RightToe
				{
					OFFSET -0.025372 -0.048144 0.123348
					CHANNELS 3 Zrotation Yrotation Xrotation
					End Site
					{
						OFFSET 0.000000 0.000000 0.000000
					}
				}
			}
		}
	}
	JOINT Spine
	{
		OFFSET -0.002533 0.108963 -0.026696
		CHANNELS 3 Zrotation Yrotation Xrotation
		JOINT Spine1
		{
			OFFSET 0.005487 0.135180 0.001092
			CHANNELS 3 Zrotation Yrotation Xrotation
			JOINT Spine2
			{
				OFFSET 0.001457 0.052922 0.025425
				CHANNELS 3 Zrotation Yrotation Xrotation
				JOINT Neck
				{
					OFFSET -0.002778 0.213870 -0.042857
					CHANNELS 3 Zrotation Yrotation Xrotation
					JOINT Head
					{
						OFFSET 0.005152 0.064970 0.051349
						CHANNELS 3 Zrotation Yrotation Xrotation
						End Site
						{
							OFFSET 0.000000 0.000000 0.000000
						}
					}
				}
				JOINT LeftShoulder
				{
					OFFSET 0.078845 0.121749 -0.034090
					CHANNELS 3 Zrotation Yrotation Xrotation
					JOINT LeftArm
					{
						OFFSET 0.090977 0.030469 -0.008868
						CHANNELS 3 Zrotation Yrotation Xrotation
						JOINT LeftForeArm
						{
							OFFSET 0.259612 -0.012772 -0.027456
							CHANNELS 3 Zrotation Yrotation Xrotation
							JOINT LeftHand
							{
								OFFSET 0.249234 0.008986 -0.001171
								CHANNELS 3 Zrotation Yrotation Xrotation
								End Site
								{
									OFFSET 0.000000 0.000000 0.000000
								}
							}
						}
					}
				}
				JOINT RightShoulder
				{
					OFFSET -0.081759 0.118833 -0.038615
					CHANNELS 3 Zrotation Yrotation Xrotation
					JOINT RightArm
					{
						OFFSET -0.096012 0.032551 -0.009143
						CHANNELS 3 Zrotation Yrotation Xrotation
						JOINT RightForeArm
						{
							OFFSET -0.253742 -0.013329 -0.021401
							CHANNELS 3 Zrotation Yrotation Xrotation
							JOINT RightHand
							{
								OFFSET -0.255298 0.007772 -0.005559
								CHANNELS 3 Zrotation Yrotation Xrotation
								End Site
								{
									OFFSET 0.000000 0.000000 0.000000
								}
							}
						}
					}
				}
			}
		}
	}
}
MOTION
Frames: 8
Frame Time: 0.05000000
26.790911 0.824342 11.436617 46.952866 85.754471 61.447986 0.508373 -3.729881 7.890086 -8.233640 -0.540978 8.818921 16.871719 3.708410 -25.494122 0.000000 0.000000 0.000000 -1.213414 -7.730451 -52.313834 1.357321 -3.710008 22.686682 2.542223 1.809599 -8.716619 0.000000 0.000000 0.000000 -5.543843 -0.296098 -21.196476 2.196729 0.717448 -20.908543 -8.002030 -17.937113 40.654768 1.546373 4.916781 -36.487310 0.000000 0.000000 0.000000 19.177285 10.380021 4.723561 -89.641453 -19.457173 -16.845311 -31.107752 -26.579907 8.633980 0.000000 0.000000 0.000000 -23.308021 -1.890598 -5.962270 96.240736 -0.806169 14.867583 5.784278 25.022254 1.673743 0.000000 0.000000 0.000000 
28.077631 0.832079 11.875846 64.150320 86.727051 73.880375 2.550157 -4.211352 8.373768 -9.676565 -1.311467 23.870583 13.720817 2.270886 -21.169218 0.000000 0.000000 0.000000 -2.428656 -5.950788 -44.085660 1.047072 -5.805545 27.402796 3.579819 3.524274 -10.209555 0.000000 0.000000 0.000000 -5.731168 -0.101994 -16.069376 2.566026 0.699658 -20.993481 -7.231138 -17.518847 40.248365 2.151696 4.890984 -36.146296 0.000000 0.000000 0.000000 18.555128 10.965840 4.684449 -89.245064 -17.296634 -20.038067 -33.040073 -23.550039 7.996302 0.000000 0.000000 0.000000 -23.245713 -1.286838 -6.210005 95.727071 -0.082822 15.958312 5.021423 24.314153 1.358474 0.000000 0.000000 0.000000 
29.271502 0.840550 12.297668 59.144995 87.333539 67.878060 4.888872 -2.462485 -1.516180 -16.852983 -4.828497 47.184160 10.322357 9.502657 -7.733074 0.000000 0.000000 0.000000 -2.133678 -3.802258 -38.365807 2.345837 -7.119765 27.559903 3.509871 1.730656 -15.281051 0.000000 0.000000 0.000000 -4.959575 0.035127 -14.621332 2.697848 0.662996 -21.296039 -6.145599 -16.120726 39.691941 2.498593 4.943533 -36.484488 0.000000 0.000000 0.000000 17.584790 11.242563 4.434740 -89.108403 -14.349870 -23.287982 -32.038957 -19.441631 6.285806 0.000000 0.000000 0.000000 -23.351325 -0.241169 -6.259723 95.295079 0.786021 17.243815 3.302874 24.686099 0.996656 0.000000 0.000000 0.000000 
30.344303 0.846826 12.666002 62.460701 87.479073 69.529451 5.035327 -1.405963 -9.970456 -26.711593 -5.502366 62.331316 13.125826 22.938549 4.226786 0.000000 0.000000 0.000000 -1.937577 -1.735179 -30.719854 3.418524 -7.170231 24.726026 4.306438 0.632617 -21.490475 0.000000 0.000000 0.000000 -5.126361 0.030278 -12.524155 2.546326 0.700107 -21.507847 -5.104901 -14.393975 39.832579 2.757534 5.104633 -36.404106 0.000000 0.000000 0.000000 18.248833 12.162040 4.710759 -88.828645 -11.374718 -27.362206 -33.001806 -16.868576 5.536056 0.000000 0.000000 0.000000 -24.251820 -0.195139 -6.769240 95.650343 1.548114 19.702110 1.386635 25.837690 0.546861 0.000000 0.000000 0.000000 
31.342039 0.853418 12.972708 52.498845 86.441813 56.423338 5.044442 -1.263703 -14.165107 -34.718183 -2.906370 65.965347 18.557773 33.493634 6.550423 0.000000 0.000000 0.000000 -1.417177 -0.052172 -20.559111 4.353155 -5.793493 18.799740 5.166711 -0.728918 -26.716136 0.000000 0.000000 0.000000 -5.771495 -0.042207 -8.227998 2.484430 0.687681 -22.079339 -3.696239 -11.742851 39.552793 3.010410 5.268093 -36.918509 0.000000 0.000000 0.000000 18.225127 13.082216 4.693556 -88.790839 -8.887802 -30.698870 -31.697414 -14.570540 4.462245 0.000000 0.000000 0.000000 -24.818548 0.310972 -7.112113 95.828015 4.309348 23.682327 -1.664829 26.916251 -0.144983 0.000000 0.000000 0.000000 
32.288052 0.858138 13.227521 54.762742 85.261823 58.638347 3.792101 -1.752290 -21.626622 -38.870304 -1.500895 64.451959 24.631915 43.902312 8.032138 0.000000 0.000000 0.000000 -2.283543 0.153139 -14.619863 5.734351 -4.803536 13.265855 5.583765 -1.303069 -28.631757 0.000000 0.000000 0.000000 -6.625846 -0.106640 -8.240614 2.325540 0.686963 -22.356747 -2.733647 -9.175710 39.776856 2.783211 5.612238 -37.425885 0.000000 0.000000 0.000000 18.042357 14.563300 4.416378 -87.871277 -4.790313 -34.588369 -30.939227 -11.394989 3.171663 0.000000 0.000000 0.000000 -25.242657 -0.159288 -7.692090 95.820838 5.892351 27.184298 -2.517931 28.421153 -0.383153 0.000000 0.000000 0.000000 
33.200909 0.860650 13.417041 53.635382 84.226188 58.181744 2.794629 -3.138872 -29.171351 -37.064101 -2.212140 58.893708 25.932115 47.838182 5.117917 0.000000 0.000000 0.000000 -2.698178 0.084270 -9.853435 6.352207 -4.116269 9.657661 5.861791 -1.067901 -30.225851 0.000000 0.000000 0.000000 -7.118128 -0.114388 -9.097648 2.186180 0.688406 -22.462608 -1.972147 -7.025958 39.858686 2.752937 5.832331 -37.325181 0.000000 0.000000 0.000000 17.706022 15.484305 4.087540 -87.215702 -1.189723 -37.666826 -29.749581 -9.573399 2.359443 0.000000 0.000000 0.000000 -25.560081 -0.117001 -7.960384 95.915786 7.464676 30.331136 -4.891080 30.115266 -1.058405 0.000000 0.000000 0.000000 
34.098450 0.861090 13.545392 48.581816 83.529777 55.921356 3.197595 -4.921659 -36.506196 -30.939993 -3.232516 49.593612 24.159303 47.038424 -0.287446 0.000000 0.000000 0.000000 -2.257841 0.241221 -8.312209 5.792332 -3.254192 7.514049 6.113938 -0.333295 -31.461673 0.000000 0.000000 0.000000 -7.106572 -0.074551 -12.461225 1.995150 0.702264 -22.299082 -1.432256 -5.634492 39.686084 2.682487 5.949547 -37.422260 0.000000 0.000000 0.000000 17.583731 16.460546 3.744958 -86.582131 2.992046 -40.591558 -28.492206 -7.410826 1.555883 0.000000 0.000000 0.000000 -25.871858 0.169267 -8.009778 95.661128 8.695162 32.426292 -6.313381 31.003938 -1.492099 0.000000 0.000000 0.000000 
